<svg viewBox="0 0 2353 1050" xmlns="http://www.w3.org/2000/svg" class="logo-svg">
    <g clip-path="url(#a)">
        <path fill-rule="evenodd" clip-rule="evenodd" d="M0 328.044v164.068h479.92c55.783 0 127.052-51.581 127.052-136.909 0-34.318 13.125-56.704-27.211-102.098l-61.385-72.734c-35.174-32.814 4.202-32.814 33.747-32.814H754.75v344.555h160.695V147.557h216.585V0H430.7c-85.328 0-127.052 81.93-124.704 124.588 2.36 42.657 10.207 96.326 81.113 160.799 64.68 58.792-32.023 42.657-41.737 42.657H0ZM1487.36 0h-259.24l-145.33 492.125h161.74l26.23-68.909h170.63l25.33 68.909h158.43L1487.36 0Zm-180.49 305.075 55.79-180.487 52.51 180.487h-108.3Zm830.21 22.969c-62.35 0-62.35-22.969-62.35-22.969 53.43 0 100.79-77.832 100.79-157.518S2097.7 0 2035.33 0h-348.77v492.125h177.22V328.057s75.46 88.597 114.84 124.692c39.38 36.094 42.65 39.376 96.1 39.376h278.19V328.057c.03-.013-153.48-.013-215.83-.013Zm-160.8-114.847h-112.47v-88.609h112.47c51.57 0 60.49 88.609 0 88.609ZM0 554.457h181.304l45.939 164.094 42.658-164.094h190.331l49.22 164.094 49.234-164.094H716.19L571.798 1046.7H427.419l-63.267-233.003L292.87 1046.7H145.209L0 554.457Zm1088.28 2.841H829.04L683.727 1049.41h161.72l26.251-68.896h170.642l25.33 68.896h158.44l-137.83-492.112ZM907.806 862.36l55.783-180.488 52.501 180.488H907.806ZM2140.35 702.144c-29.51 0-61.69 3.45-26.5 36.251l61.4 72.747c40.32 45.394 39.67 64.317 39.67 98.661 0 85.315-84.4 136.897-140.19 136.897l-387.74 2.61c-53.42 0-56.69-3.27-96.08-39.37-39.36-36.092-114.85-124.702-114.85-124.702v164.072h-177.19V557.194h348.77c62.35 0 140.19 67.884 140.19 147.557 0 79.699-47.37 157.518-100.81 157.518 0 0 23.5 23.631 62.87 23.631 39.39 0 191.01.155 191.01.155 9.7 0 106.39 16.135 41.72-42.657-70.9-64.473-78.75-118.116-81.11-160.773-2.36-42.658 34.53-128.155 119.81-128.155h331.64v147.687l-212.61-.013Zm-551.8 68.234h-112.5v-88.609h112.5c51.58 0 60.49 88.609 0 88.609Z"/>
    </g>
    <defs>
        <clipPath id="a">
            <path fill="#fff" d="M0 0h2353v1050H0z"/>
        </clipPath>
    </defs>
</svg>
